<svg width="25" height="25" viewBox="0 0 25 25" fill="none" xmlns="http://www.w3.org/2000/svg">
<circle cx="12.5" cy="12.5" r="12.5" fill="white"/>
<g clip-path="url(#clip0_151_87)">
<path d="M16.2812 8.71875H16.2881M9.0625 5.625H15.9375C17.836 5.625 19.375 7.16402 19.375 9.0625V15.9375C19.375 17.836 17.836 19.375 15.9375 19.375H9.0625C7.16402 19.375 5.625 17.836 5.625 15.9375V9.0625C5.625 7.16402 7.16402 5.625 9.0625 5.625ZM15.25 12.0669C15.3348 12.639 15.2371 13.2234 14.9707 13.7368C14.7043 14.2502 14.2828 14.6666 13.7661 14.9267C13.2494 15.1867 12.6639 15.2772 12.0929 15.1853C11.5218 15.0934 10.9942 14.8238 10.5852 14.4148C10.1762 14.0058 9.90657 13.4782 9.81467 12.9071C9.72278 12.3361 9.81329 11.7506 10.0733 11.2339C10.3334 10.7172 10.7498 10.2957 11.2632 10.0293C11.7766 9.76289 12.361 9.66515 12.9331 9.75C13.5168 9.83655 14.0571 10.1085 14.4743 10.5257C14.8915 10.9429 15.1635 11.4832 15.25 12.0669Z" stroke="black" stroke-width="2" stroke-linecap="round" stroke-linejoin="round"/>
</g>
<defs>
<clipPath id="clip0_151_87">
<rect width="16.5" height="16.5" fill="white" transform="translate(4.25 4.25)"/>
</clipPath>
</defs>
</svg>
