<svg width="25" height="25" viewBox="0 0 25 25" fill="none" xmlns="http://www.w3.org/2000/svg">
<circle cx="12.5" cy="12.5" r="12.5" fill="white"/>
<g clip-path="url(#clip0_151_131)">
<path d="M20.0625 6.31246C19.4041 6.77685 18.6752 7.13203 17.9038 7.36433C17.4897 6.88824 16.9394 6.55081 16.3273 6.39765C15.7153 6.2445 15.0709 6.28303 14.4814 6.50802C13.892 6.73301 13.3858 7.13361 13.0314 7.65564C12.677 8.17766 12.4915 8.79594 12.5 9.42683V10.1143C11.2918 10.1457 10.0946 9.8777 9.01507 9.33432C7.93551 8.79095 7.00709 7.98902 6.3125 6.99996C6.3125 6.99996 3.5625 13.1875 9.75 15.9375C8.33411 16.8986 6.64742 17.3805 4.9375 17.3125C11.125 20.75 18.6875 17.3125 18.6875 9.40621C18.6869 9.2147 18.6685 9.02368 18.6325 8.83558C19.3342 8.14361 19.8293 7.26995 20.0625 6.31246Z" stroke="black" stroke-width="2" stroke-linecap="round" stroke-linejoin="round"/>
</g>
<defs>
<clipPath id="clip0_151_131">
<rect width="16.5" height="16.5" fill="white" transform="translate(4.25 4.25)"/>
</clipPath>
</defs>
</svg>
