<svg width="25" height="25" viewBox="0 0 25 25" fill="none" xmlns="http://www.w3.org/2000/svg">
<circle cx="12.5" cy="12.5" r="12.5" fill="white"/>
<g clip-path="url(#clip0_151_130)">
<path d="M19.7462 8.66375C19.6645 8.33747 19.4982 8.03852 19.264 7.79709C19.0298 7.55567 18.736 7.38031 18.4124 7.28875C17.2299 7 12.4999 7 12.4999 7C12.4999 7 7.7699 7 6.5874 7.31625C6.26376 7.40781 5.97001 7.58317 5.73583 7.82459C5.50165 8.06602 5.33532 8.36497 5.25365 8.69125C5.03724 9.89132 4.93138 11.1087 4.9374 12.3281C4.92969 13.5567 5.03556 14.7834 5.25365 15.9925C5.34369 16.3086 5.51374 16.5962 5.74738 16.8275C5.98102 17.0587 6.27034 17.2257 6.5874 17.3125C7.7699 17.6288 12.4999 17.6288 12.4999 17.6288C12.4999 17.6288 17.2299 17.6288 18.4124 17.3125C18.736 17.2209 19.0298 17.0456 19.264 16.8042C19.4982 16.5627 19.6645 16.2638 19.7462 15.9375C19.9609 14.7465 20.0668 13.5384 20.0624 12.3281C20.0701 11.0995 19.9643 9.87286 19.7462 8.66375Z" stroke="black" stroke-width="2" stroke-linecap="round" stroke-linejoin="round"/>
<path d="M10.953 14.5763L14.9062 12.3281L10.953 10.08V14.5763Z" stroke="black" stroke-width="2" stroke-linecap="round" stroke-linejoin="round"/>
</g>
<defs>
<clipPath id="clip0_151_130">
<rect width="16.5" height="16.5" fill="white" transform="translate(4.25 4.25)"/>
</clipPath>
</defs>
</svg>
